DBRep_DrawableShape

CASCADE Topology V1, (c) Matra-Datavision
Locations 0
Curve2ds 0
Curves 163
1 0 0 0 -0.49999999999999989 -0.86602540378443882 -0 
1 27.5 47.631397208144101 0 0.86602540378443882 -0.49999999999999989 0 
2 27.1780633451258 45.272194477244398 0 0 0 -1 0.50000000000000033 0.86602540378443849 0 0.86602540378443849 -0.50000000000000033 0 2.2040978250738701
1 30.363207063410002 45.978323839338699 0 -0.57357643635104605 -0.81915204428899191 0 
1 16.544789339651601 26.2435781108233 0 -0.95314318574278845 -0.30251953238111484 0 
1 15.899519052838301 26.038774815425398 0 -0.49999999999999989 -0.86602540378443882 0 
2 0 0 0 0 0 -1 1 0 0 0 -1 0 30
1 19.030488763100202 23.846446222393698 0 0.64278760968653914 0.76604444311897824 -0 
1 19.002245472518599 24.522848801770099 0 -0.041718796775495795 0.9991293920186739 -0 
1 32.820663196277003 44.257594530285601 0 0.57357643635104605 0.81915204428899191 -0 
2 33.2465019564371 41.023028016441401 0 0 0 -1 0.64278760968653914 0.76604444311897824 0 0.76604444311897824 -0.64278760968653914 0 2.2040978250738701
1 35.353318532759701 42.132444371543798 0 0.76604444311897824 -0.64278760968653914 0 
2 34.6266015640931 39.864986944669297 0 0 0 -1 0.64278760968653981 0.76604444311897779 0 0.76604444311897779 -0.64278760968653981 0 2.2040978250738701
1 37.885973869242399 40.007294212802002 0 -0.70710678118654802 -0.70710678118654702 0 
1 20.850586328046798 22.971906671606501 0 -0.99119476455688571 -0.13241200366666195 0 
1 20.179555427778698 22.882264807863901 0 -0.64278760968653914 -0.76604444311897824 0 
2 0 0 0 0 0 -1 1 0 0 0 -1 0 30
1 22.882264807863901 20.179555427778698 0 0.76604444311897824 0.64278760968653914 -0 
1 22.971906671606501 20.850586328046798 0 0.13241200366666195 0.99119476455688571 -0 
1 40.007294212802002 37.885973869242299 0 0.70710678118654802 0.70710678118654702 -0 
2 39.864986944669297 34.6266015640931 0 0 0 -1 0.76604444311897824 0.64278760968653914 0 0.64278760968653914 -0.76604444311897824 0 2.2040978250738701
1 42.132444371543798 35.353318532759701 0 0.64278760968653914 -0.76604444311897824 0 
2 41.023028016441401 33.2465019564371 0 0 0 -1 0.76604444311897824 0.64278760968653914 0 0.64278760968653914 -0.76604444311897824 0 2.2040978250738701
1 44.257594530285601 32.820663196277003 0 -0.81915204428899191 -0.57357643635104605 0 
1 24.522848801770099 19.002245472518599 0 -0.9991293920186739 0.041718796775495892 0 
1 23.846446222393698 19.030488763100202 0 -0.76604444311897824 -0.64278760968653914 0 
2 0 0 0 0 0 -1 1 0 0 0 -1 0 30
1 26.038774815425398 15.899519052838301 0 0.86602540378443882 0.49999999999999989 -0 
1 26.2435781108233 16.544789339651601 0 0.30251953238111512 0.95314318574278833 -0 
1 45.978323839338699 30.363207063410002 0 0.81915204428899191 0.57357643635104605 -0 
2 45.272194477244398 27.1780633451258 0 0 0 -1 0.86602540378443882 0.49999999999999989 0 0.49999999999999989 -0.86602540378443882 0 2.2040978250738701
1 47.631397208144101 27.5 0 0.49999999999999989 -0.86602540378443882 0 
2 46.172990521163797 25.617838829800299 0 0 0 -1 0.86602540378443882 0.49999999999999989 0 0.49999999999999989 -0.86602540378443882 0 2.2040978250738701
1 49.284470576949502 24.636792936589998 0 -0.90630778703665016 -0.42261826174069905 0 
1 27.449996923811899 14.455210660348399 0 -0.97670597848784191 0.21458199268835998 0 
1 26.788774815425398 14.600480947161699 0 -0.86602540378443882 -0.49999999999999989 0 
2 0 0 0 0 0 -1 1 0 0 0 -1 0 30
1 28.404109826475999 11.136383837022301 0 0.93969262078590832 0.3420201433256691 -0 
1 28.717851709034001 11.7362872992384 0 0.46343515818643694 0.88613083354362088 -0 
1 50.552325362171601 21.917869575480101 0 0.90630778703665016 0.42261826174069905 -0 
2 49.303829289464304 18.903733424180398 0 0 0 -1 0.93969262078590832 0.3420201433256691 0 0.3420201433256691 -0.93969262078590832 0 2.2040978250738701
1 51.683094143224999 18.811107882911799 0 0.3420201433256691 -0.93969262078590832 0 
2 49.920010073561301 17.210790633572 0 0 0 -1 0.93969262078590843 0.34202014332566882 0 0.34202014332566882 -0.93969262078590843 0 2.2040978250738701
1 52.813862924278297 15.7043461903435 0 -0.96592582628906831 -0.25881904510252107 0 
1 29.543090779692299 9.4689615869530304 0 -0.92460584803772949 0.38092522333711515 0 
1 28.917140041464499 9.7268449058434694 0 -0.93969262078590832 -0.3420201433256691 0 
2 0 0 0 0 0 -1 1 0 0 0 -1 0 30
1 29.906400333622098 6.0348752336005296 0 0.98480775301220813 0.17364817766693003 -0 
1 30.319547914999902 6.57118410808582 0 0.61026954121976984 0.79219384437106777 -0 
1 53.590320059585899 12.8065687114763 0 0.96592582628906831 0.25881904510252107 -0 
2 51.837392197665203 10.055023128892 0 0 0 -1 0.98480775301220802 0.173648177666931 0 0.173648177666931 -0.98480775301220802 0 2.2040978250738701
1 54.1644264156714 9.5506497716811705 0 0.17364817766693003 -0.98480775301220813 0 
2 52.150235380617502 8.2808012730229006 0 0 0 -1 0.98480775301220813 0.17364817766693003 0 0.17364817766693003 -0.98480775301220813 0 2.2040978250738701
1 54.738532771757001 6.2947308318860404 0 -0.99619469809174555 -0.087155742747658152 0 
1 30.738532771757001 4.1950029072638602 0 -0.84441203676812471 0.5356942338322368 0 
1 30.166872600122499 4.5576636040822196 0 -0.98480775301220813 -0.17364817766693003 0 
2 0 0 0 0 0 -1 1 0 0 0 -1 0 30
1 30.5 0.74999999999999301 0 1 -2.4492935982947099e-16 -0 
1 31 1.20641881298862 0 0.73856119305442902 0.67418644610672696 -0 
1 55 3.3061467376107898 0 0.99619469809174555 0.087155742747657861 -0 
2 52.795902174926098 0.90079604391938395 0 0 -0 -1 1 -4.34459207560802e-17 0 -4.34459207560802e-17 -1 0 2.2040978250738701
1 55 -1.3471114790620899e-14 0 -2.4492935982947099e-16 -1 0 
1 125 0 0 1 -0 -0 
2 0 0 0 0 0 1 1 0 -0 -0 1 0 62.5
1 125 0 0 1 -0 -0 
1 43 -62.5 0 -0 -1 -0 
1 55 3.3061467376108 0 -0.99619469809174555 -0.087155742747658152 0 
1 31 62.5 0 -0 1 -0 
1 125 0 0 1 -0 -0 
1 55 0 0 0 1 0 
2 52.795902174926098 0.90079604391939705 0 0 -0 1 1 2.0148343907339e-16 0 -2.0148343907339e-16 1 0 2.2040978250738701
1 55 3.3061467376108 0 -0.99619469809174555 -0.087155742747658152 0 
1 43 -62.5 0 0 1 0 
1 53.199744483708102 -54.083612923585001 0 0.17364817766693003 -0.98480775301220813 -0 
1 53.590320059585899 12.8065687114763 0 -0.96592582628906831 -0.25881904510252107 0 
1 19.676029239195302 66.933578070937799 0 -0.17364817766693003 0.98480775301220813 0 
1 54.738532771757001 6.2947308318860404 0 -0.99619469809174555 -0.087155742747658152 0 
1 61.783041651648396 -44.0239226361155 0 0.3420201433256691 -0.93969262078590832 -0 
1 50.552325362171601 21.917869575480101 0 -0.90630778703665016 -0.42261826174069905 0 
1 7.7542122865088698 69.333413242215002 0 -0.3420201433256691 0.93969262078590832 0 
1 52.813862924278297 15.7043461903435 0 -0.9659258262890682 -0.25881904510252107 0 
1 68.489092362730901 -32.626587736527398 0 0.49999999999999989 -0.86602540378443882 -0 
1 45.978323839338699 30.363207063410002 0 -0.81915204428899191 -0.57357643635104605 0 
1 -4.4032124826823997 69.626587736527398 0 -0.49999999999999989 0.86602540378443882 0 
1 49.284470576949502 24.636792936589998 0 -0.90630778703665016 -0.42261826174069905 0 
1 73.114136659524704 -20.2379104784149 0 0.64278760968653914 -0.76604444311897824 -0 
1 40.007294212802002 37.885973869242299 0 -0.70710678118654802 -0.70710678118654702 0 
1 -16.426847868720401 67.804193595218806 0 -0.64278760968653914 0.76604444311897824 0 
1 44.257594530285601 32.820663196277003 0 -0.81915204428899191 -0.57357643635104605 0 
1 75.517644911457296 -7.2343145512926599 0 0.76604444311897824 -0.64278760968653914 -0 
1 32.820663196277003 44.257594530285601 0 -0.57357643635104605 -0.81915204428899191 0 
1 -27.951361794653401 63.921603342097001 0 -0.76604444311897824 0.64278760968653914 0 
1 37.885973869242399 40.007294212802002 0 -0.70710678118654802 -0.70710678118654702 0 
1 0 0 0 -0.49999999999999989 -0.86602540378443882 -0 
1 -38.626587736527398 58.096787517317601 0 -0.86602540378443882 0.49999999999999989 0 
1 30.363207063410002 45.978323839338699 0 -0.57357643635104605 -0.81915204428899191 0 
1 75.626587736527398 5.9890923627308501 0 0.86602540378443882 -0.49999999999999989 -0 
1 53.199744483708102 -54.083612923585001 0 -0.17364817766693003 0.98480775301220813 0 
1 54.738532771757001 6.2947308318860404 0 -0.99619469809174555 -0.087155742747658152 0 
2 52.150235380617502 8.2808012730229006 0 0 0 -1 0.98480775301220813 0.17364817766693003 0 0.17364817766693003 -0.98480775301220813 0 2.2040978250738701
1 54.1644264156714 9.5506497716811705 0 -0.17364817766693003 0.98480775301220813 0 
2 51.837392197665203 10.055023128892 0 0 -0 1 0.98480775301220802 0.173648177666931 0 -0.173648177666931 0.98480775301220802 0 2.2040978250738701
1 53.590320059585899 12.8065687114763 0 -0.96592582628906831 -0.25881904510252107 0 
1 61.783041651648297 -44.0239226361155 0 -0.3420201433256691 0.93969262078590832 0 
1 52.813862924278297 15.7043461903435 0 -0.9659258262890682 -0.25881904510252107 0 
2 49.920010073561301 17.210790633572 0 0 0 -1 0.93969262078590843 0.34202014332566882 0 0.34202014332566882 -0.93969262078590843 0 2.2040978250738701
1 51.683094143224999 18.811107882911799 0 -0.3420201433256691 0.93969262078590832 0 
2 49.303829289464304 18.903733424180398 0 0 -0 1 0.93969262078590832 0.3420201433256691 0 -0.3420201433256691 0.93969262078590832 0 2.2040978250738701
1 50.552325362171601 21.917869575480101 0 -0.90630778703665016 -0.42261826174069905 0 
1 68.489092362730801 -32.626587736527398 0 -0.49999999999999989 0.86602540378443882 0 
1 49.284470576949502 24.636792936589998 0 -0.90630778703665016 -0.42261826174069905 0 
2 46.172990521163797 25.617838829800299 0 0 0 -1 0.86602540378443882 0.49999999999999989 0 0.49999999999999989 -0.86602540378443882 0 2.2040978250738701
1 47.631397208144101 27.5 0 -0.49999999999999989 0.86602540378443882 0 
2 45.272194477244398 27.1780633451258 0 0 -0 1 0.86602540378443882 0.49999999999999989 0 -0.49999999999999989 0.86602540378443882 0 2.2040978250738701
1 45.978323839338699 30.363207063410002 0 -0.81915204428899191 -0.57357643635104605 0 
1 73.114136659524704 -20.2379104784149 0 -0.64278760968653914 0.76604444311897824 0 
1 44.257594530285601 32.820663196277003 0 -0.81915204428899191 -0.57357643635104605 0 
2 41.023028016441401 33.2465019564371 0 0 0 -1 0.76604444311897824 0.64278760968653914 0 0.64278760968653914 -0.76604444311897824 0 2.2040978250738701
1 42.132444371543798 35.353318532759701 0 -0.64278760968653914 0.76604444311897824 0 
2 39.864986944669297 34.6266015640931 0 0 -0 1 0.76604444311897824 0.64278760968653914 0 -0.64278760968653914 0.76604444311897824 0 2.2040978250738701
1 40.007294212802002 37.885973869242299 0 -0.70710678118654802 -0.70710678118654702 0 
1 75.517644911457296 -7.2343145512926599 0 -0.76604444311897824 0.64278760968653914 0 
1 37.885973869242399 40.007294212802002 0 -0.70710678118654802 -0.70710678118654702 0 
2 34.6266015640931 39.864986944669297 0 0 0 -1 0.64278760968653981 0.76604444311897779 0 0.76604444311897779 -0.64278760968653981 0 2.2040978250738701
1 35.353318532759701 42.132444371543798 0 -0.76604444311897824 0.64278760968653914 0 
2 33.2465019564371 41.023028016441401 0 0 -0 1 0.64278760968653914 0.76604444311897824 0 -0.76604444311897824 0.64278760968653914 0 2.2040978250738701
1 32.820663196277003 44.257594530285601 0 -0.57357643635104605 -0.81915204428899191 0 
1 0 0 0 -0.49999999999999989 -0.86602540378443882 -0 
1 75.626587736527398 5.9890923627308403 0 -0.86602540378443882 0.49999999999999989 0 
1 30.363207063410002 45.978323839338699 0 -0.57357643635104605 -0.81915204428899191 0 
2 27.1780633451258 45.272194477244398 0 0 0 -1 0.50000000000000033 0.86602540378443849 0 0.86602540378443849 -0.50000000000000033 0 2.2040978250738701
1 27.5 47.631397208144101 0 -0.86602540378443882 0.49999999999999989 0 
1 13.702120829604199 10.5244212604509 0 -0.9945218953682734 0.10452846326765304 0 
1 14.956462388816 22.4586840048702 0 0.10452846326765304 0.9945218953682734 0 
1 17.9400280749208 22.145098615067202 0 0.9945218953682734 -0.10452846326765304 0 
1 20.732410731516701 72.629775489334193 0 0.10452846326765304 0.9945218953682734 0 
2 0 0 0 0 0 -1 0.86602540378443882 0.49999999999999989 0 0.49999999999999989 -0.86602540378443882 0 28.5
1 16.685686515709001 10.2108358706479 0 -0.10452846326765304 -0.9945218953682734 -0 
1 14.009520842410801 8.6657508987731902 0 -0.86602540378443871 -0.49999999999999983 -0 
1 20.732410731516701 72.629775489334193 0 0.10452846326765304 0.9945218953682734 0 
1 28.148232007420201 4.4639707499538801 0 -0.40673664307579999 -0.91354545764260098 0 
1 26.9280220781928 1.7233343770260801 0 -0.91354545764260098 0.40673664307579999 0 
1 15.9654765864816 6.6041740939356801 0 0.40673664307579999 0.91354545764260098 0 
1 73.265436010682095 -18.360093369480499 0 -0.91354545764260098 0.40673664307579999 0 
1 14.509520842410801 7.79972549498875 0 0.86602540378443871 0.49999999999999983 0 
1 17.185686515709001 9.3448104668634908 0 0.91354545764260098 -0.40673664307579999 0 
2 0 0 0 0 0 -1 0.86602540378443882 0.49999999999999989 0 0.49999999999999989 -0.86602540378443882 0 28.5
1 73.265436010682095 -18.360093369480499 0 -0.91354545764260098 0.40673664307579999 0 
1 0 0 0 -0.49999999999999989 -0.86602540378443882 -0 
2 0 0 0 0 0 -1 0.86602540378443882 0.49999999999999989 0 0.49999999999999989 -0.86602540378443882 0 13
1 125 0 0 1 -0 -0 
2 0 0 0 0 -0 1 0.86602540378443882 0.49999999999999989 0 -0.49999999999999989 0.86602540378443882 0 29.5
1 16.685686515709001 10.2108358706479 0 0.10452846326765304 0.9945218953682734 0 
1 17.9400280749208 22.145098615067202 0 -0.9945218953682734 0.10452846326765304 0 
1 14.956462388816 22.4586840048702 0 -0.10452846326765304 -0.9945218953682734 0 
1 13.702120829604199 10.5244212604509 0 0.9945218953682734 -0.10452846326765304 0 
1 17.185686515709001 9.3448104668634908 0 0.91354545764260098 -0.40673664307579999 0 
1 15.9654765864816 6.6041740939356801 0 0.40673664307579999 0.91354545764260098 0 
1 26.9280220781928 1.7233343770260801 0 -0.91354545764260098 0.40673664307579999 0 
1 28.148232007420201 4.4639707499538801 0 -0.40673664307579999 -0.91354545764260098 0 
1 125 0 0 1 -0 -0 
2 0 0 0 0 0 1 1 0 -0 -0 1 0 13
1 0 0 0 -0.49999999999999989 -0.86602540378443882 -0 
Polygon3D 0
PolygonOnTriangulations 0
Surfaces 19
1 0 0 0 0 0 1 1 0 -0 -0 1 0 
1 28.1323232526934 0.731612178811197 0 0 0 1 1 0 -0 -0 1 0 
1 28.1323232526934 -0.731612178811197 0 0 0 -1 1 0 0 0 -1 0 
1 27.5778869278885 5.6056240122586303 0 0 -0 1 0.98480775301220813 0.17364817766693003 0 -0.17364817766693003 0.98480775301220813 0 
1 26.185510463863999 10.3093117966762 0 0 -0 1 0.93969262078590832 0.3420201433256691 0 -0.3420201433256691 0.93969262078590832 0 
1 23.997500514902502 14.6997563589153 0 0 -0 1 0.86602540378443882 0.49999999999999989 0 -0.49999999999999989 0.86602540378443882 0 
1 21.080338656117 18.643556262624301 0 0 -0 1 0.76604444311897824 0.64278760968653914 0 -0.64278760968653914 0.76604444311897824 0 
1 17.522661374431301 22.020881143388198 0 0 -0 1 0.64278760968653914 0.76604444311897824 0 -0.76604444311897824 0.64278760968653914 0 
1 13.4325668937781 24.729112693713699 0 0 -0 1 0.49999999999999989 0.86602540378443882 0 -0.86602540378443882 0.49999999999999989 0 
1 27.831973171107499 4.1646293204757896 0 0 0 -1 0.98480775301220813 0.17364817766693003 0 0.17364817766693003 -0.98480775301220813 0 
1 26.685962668375598 8.9343306652642394 0 0 0 -1 0.93969262078590832 0.3420201433256691 0 0.3420201433256691 -0.93969262078590832 0 
1 24.729112693713699 13.4325668937781 0 0 0 -1 0.86602540378443882 0.49999999999999989 0 0.49999999999999989 -0.86602540378443882 0 
1 22.020881143388198 17.522661374431301 0 0 0 -1 0.76604444311897824 0.64278760968653914 0 0.64278760968653914 -0.76604444311897824 0 
1 18.643556262624301 21.080338656117 0 0 0 -1 0.64278760968653914 0.76604444311897824 0 0.76604444311897824 -0.64278760968653914 0 
1 14.6997563589153 23.997500514902502 0 0 0 -1 0.49999999999999989 0.86602540378443882 0 0.86602540378443882 -0.49999999999999989 0 
1 0 0 0 0 -0 1 0.86602540378443882 0.49999999999999989 0 -0.49999999999999989 0.86602540378443882 0 
1 15.821074452262501 16.334759937758999 0 0 -0 1 0.86602540378443882 0.49999999999999989 0 -0.49999999999999989 0.86602540378443882 0 
1 22.056854296950899 5.5340724219447797 0 0 0 -1 0.86602540378443882 0.49999999999999989 0 0.49999999999999989 -0.86602540378443882 0 
1 0 0 0 0 0 1 1 0 -0 -0 1 0 
Triangulations 0

TShapes 386
Ve
1e-07
31.25 54.1265877365274 0
0 0

0101101
*
Ve
1e-07
27.5 47.6313972081441 0
0 0

0101101
*
Ed
 1e-07 1 1 0
1  1 0 -62.5 -55
0

0101000
+386 0 -385 0 *
Ve
1e-07
28.2801122576627 47.1809991861844 0
0 0

0101101
*
Ed
 1e-07 1 1 0
1  2 0 0 0.900796043919381
0

0101000
+385 0 -383 0 *
Ve
1e-07
28.983554584348 44.0079759013695 0
0 0

0101101
*
Ed
 1e-07 1 1 0
1  3 0 0 1.65806278939458
0

0101000
+383 0 -381 0 *
Ve
1e-07
16.5447893396516 26.2435781108233 0
0 0

0101101
*
Ed
 1e-07 1 1 0
1  4 0 2.40535069369134 24.0916761010403
0

0101000
+381 0 -379 0 *
Ve
1e-07
15.8995190528383 26.0387748154254 0
0 0

0101101
*
Ed
 1e-07 1 1 0
1  5 0 0 0.676991973992276
0

0101000
+379 0 -377 0 *
Ve
1e-07
15.6448308201875 25.5976418563842 0
0 0

0101101
*
Ed
 1e-07 1 1 0
1  6 0 0 0.509376465301678
0

0101000
+377 0 -375 0 *
Ve
1e-07
18.7030678825384 23.4562412116938 0
0 0

0101101
*
Ed
 1e-07 1 1 0
1  7 0 5.26099036088235 5.38551807628306
0

0101000
+375 0 -373 0 *
Ve
1e-07
19.0304887631002 23.8464462223937 0
0 0

0101101
*
Ed
 1e-07 1 1 0
1  8 0 -0.509376465301621 0
0

0101000
+373 0 -371 0 *
Ve
1e-07
19.0022454725186 24.5228488017701 0
0 0

0101101
*
Ed
 1e-07 1 1 0
1  9 0 -0.676991973992251 0
0

0101000
+371 0 -369 0 *
Ve
1e-07
31.4410107172149 42.2872465923163 0
0 0

0101101
*
Ed
 1e-07 1 1 0
1  10 0 -24.0916761010404 -2.40535069369148
0

0101000
+369 0 -367 0 *
Ve
1e-07
34.6632687289317 42.7114649074298 0
0 0

0101101
*
Ed
 1e-07 1 1 0
1  11 0 4.62512251778495 6.28318530717959
0

0101000
+367 0 -365 0 *
Ve
1e-07
36.0433683365877 41.5534238356578 0
0 0

0101101
*
Ed
 1e-07 1 1 0
1  12 0 -0.900796043919365 0.900796043919355
0

0101000
+365 0 -363 0 *
Ve
1e-07
36.1851340826014 38.306454426161 0
0 0

0101101
*
Ed
 1e-07 1 1 0
1  13 0 0 1.65806278939461
0

0101000
+363 0 -361 0 *
Ve
1e-07
20.8505863280468 22.9719066716065 0
0 0

0101101
*
Ed
 1e-07 1 1 0
1  14 0 2.40535069369147 24.0916761010404
0

0101000
+361 0 -359 0 *
Ve
1e-07
20.1795554277787 22.8822648078639 0
0 0

0101101
*
Ed
 1e-07 1 1 0
1  15 0 0 0.676991973992206
0

0101000
+359 0 -357 0 *
Ve
1e-07
19.8521345472168 22.492059797164 0
0 0

0101101
*
Ed
 1e-07 1 1 0
1  16 0 0 0.509376465301686
0

0101000
+357 0 -355 0 *
Ve
1e-07
22.492059797164 19.8521345472168 0
0 0

0101101
*
Ed
 1e-07 1 1 0
1  17 0 5.43552328608178 5.56005100148249
0

0101000
+355 0 -353 0 *
Ve
1e-07
22.8822648078639 20.1795554277787 0
0 0

0101101
*
Ed
 1e-07 1 1 0
1  18 0 -0.509376465301686 0
0

0101000
+353 0 -351 0 *
Ve
1e-07
22.9719066716065 20.8505863280468 0
0 0

0101101
*
Ed
 1e-07 1 1 0
1  19 0 -0.676991973992206 0
0

0101000
+351 0 -349 0 *
Ve
1e-07
38.306454426161 36.1851340826014 0
0 0

0101101
*
Ed
 1e-07 1 1 0
1  20 0 -24.0916761010403 -2.4053506936914
0

0101000
+349 0 -347 0 *
Ve
1e-07
41.5534238356578 36.0433683365877 0
0 0

0101101
*
Ed
 1e-07 1 1 0
1  21 0 4.62512251778497 6.28318530717959
0

0101000
+347 0 -345 0 *
Ve
1e-07
42.7114649074298 34.6632687289316 0
0 0

0101101
*
Ed
 1e-07 1 1 0
1  22 0 -0.900796043919355 0.900796043919442
0

0101000
+345 0 -343 0 *
Ve
1e-07
42.2872465923163 31.4410107172149 0
0 0

0101101
*
Ed
 1e-07 1 1 0
1  23 0 0 1.65806278939464
0

0101000
+343 0 -341 0 *
Ve
1e-07
24.5228488017701 19.0022454725186 0
0 0

0101101
*
Ed
 1e-07 1 1 0
1  24 0 2.40535069369148 24.0916761010404
0

0101000
+341 0 -339 0 *
Ve
1e-07
23.8464462223937 19.0304887631002 0
0 0

0101101
*
Ed
 1e-07 1 1 0
1  25 0 0 0.676991973992251
0

0101000
+339 0 -337 0 *
Ve
1e-07
23.4562412116938 18.7030678825384 0
0 0

0101101
*
Ed
 1e-07 1 1 0
1  26 0 0 0.509376465301621
0

0101000
+337 0 -335 0 *
Ve
1e-07
25.5976418563842 15.6448308201875 0
0 0

0101101
*
Ed
 1e-07 1 1 0
1  27 0 5.61005621128121 5.73458392668193
0

0101000
+335 0 -333 0 *
Ve
1e-07
26.0387748154254 15.8995190528383 0
0 0

0101101
*
Ed
 1e-07 1 1 0
1  28 0 -0.509376465301678 0
0

0101000
+333 0 -331 0 *
Ve
1e-07
26.2435781108233 16.5447893396516 0
0 0

0101101
*
Ed
 1e-07 1 1 0
1  29 0 -0.676991973992276 0
0

0101000
+331 0 -329 0 *
Ve
1e-07
44.0079759013695 28.983554584348 0
0 0

0101101
*
Ed
 1e-07 1 1 0
1  30 0 -24.0916761010403 -2.40535069369134
0

0101000
+329 0 -327 0 *
Ve
1e-07
47.1809991861844 28.2801122576627 0
0 0

0101101
*
Ed
 1e-07 1 1 0
1  31 0 4.625122517785 6.28318530717959
0

0101000
+327 0 -325 0 *
Ve
1e-07
48.0817952301038 26.7198877423373 0
0 0

0101101
*
Ed
 1e-07 1 1 0
1  32 0 -0.900796043919381 0.900796043919381
0

0101000
+325 0 -323 0 *
Ve
1e-07
47.104482512703 23.6202478075454 0
0 0

0101101
*
Ed
 1e-07 1 1 0
1  33 0 0 1.65806278939458
0

0101000
+323 0 -321 0 *
Ve
1e-07
27.4499969238119 14.4552106603484 0
0 0

0101101
*
Ed
 1e-07 1 1 0
1  34 0 2.40535069369136 24.0916761010403
0

0101000
+321 0 -319 0 *
Ve
1e-07
26.7887748154254 14.6004809471617 0
0 0

0101101
*
Ed
 1e-07 1 1 0
1  35 0 0 0.676991973992238
0

0101000
+319 0 -317 0 *
Ve
1e-07
26.3476418563842 14.3457927145108 0
0 0

0101101
*
Ed
 1e-07 1 1 0
1  36 0 0 0.509376465301728
0

0101000
+317 0 -315 0 *
Ve
1e-07
27.9254525208299 10.9621668253531 0
0 0

0101101
*
Ed
 1e-07 1 1 0
1  37 0 5.78458913648065 5.90911685188136
0

0101000
+315 0 -313 0 *
Ve
1e-07
28.404109826476 11.1363838370223 0
0 0

0101101
*
Ed
 1e-07 1 1 0
1  38 0 -0.509376465301774 0
0

0101000
+313 0 -311 0 *
Ve
1e-07
28.717851709034 11.7362872992384 0
0 0

0101101
*
Ed
 1e-07 1 1 0
1  39 0 -0.676991973992235 0
0

0101000
+311 0 -309 0 *
Ve
1e-07
48.3723372979251 20.9013244464354 0
0 0

0101101
*
Ed
 1e-07 1 1 0
1  40 0 -24.0916761010404 -2.4053506936914
0

0101000
+309 0 -307 0 *
Ve
1e-07
51.3750037511765 19.657579278216 0
0 0

0101101
*
Ed
 1e-07 1 1 0
1  41 0 4.62512251778496 6.28318530717959
0

0101000
+307 0 -305 0 *
Ve
1e-07
51.9911845352735 17.9646364876076 0
0 0

0101101
*
Ed
 1e-07 1 1 0
1  42 0 -0.9007960439194 0.900796043919397
0

0101000
+305 0 -303 0 *
Ve
1e-07
50.4904725679595 15.0817956206656 0
0 0

0101101
*
Ed
 1e-07 1 1 0
1  43 0 0 1.65806278939459
0

0101000
+303 0 -301 0 *
Ve
1e-07
29.5430907796923 9.46896158695303 0
0 0

0101101
*
Ed
 1e-07 1 1 0
1  44 0 2.40535069369135 24.0916761010403
0

0101000
+301 0 -299 0 *
Ve
1e-07
28.9171400414645 9.72684490584347 0
0 0

0101101
*
Ed
 1e-07 1 1 0
1  45 0 0 0.676991973992215
0

0101000
+299 0 -297 0 *
Ve
1e-07
28.4384827358184 9.55262789417426 0
0 0

0101101
*
Ed
 1e-07 1 1 0
1  46 0 0 0.509376465301777
0

0101000
+297 0 -295 0 *
Ve
1e-07
29.4047624413911 5.94642293865447 0
0 0

0101101
*
Ed
 1e-07 1 1 0
1  47 0 5.95912206168008 6.08364977708079
0

0101000
+295 0 -293 0 *
Ve
1e-07
29.9064003336221 6.03487523360053 0
0 0

0101101
*
Ed
 1e-07 1 1 0
1  48 0 -0.509376465301631 0
0

0101000
+293 0 -291 0 *
Ve
1e-07
30.3195479149999 6.57118410808582 0
0 0

0101101
*
Ed
 1e-07 1 1 0
1  49 0 -0.676991973992312 0
0

0101000
+291 0 -289 0 *
Ve
1e-07
51.266929703267 12.1840181417984 0
0 0

0101101
*
Ed
 1e-07 1 1 0
1  50 0 -24.0916761010403 -2.40535069369145
0

0101000
+289 0 -287 0 *
Ve
1e-07
54.0080048241953 10.4377606996157 0
0 0

0101101
*
Ed
 1e-07 1 1 0
1  51 0 4.62512251778496 6.28318530717959
0

0101000
+287 0 -285 0 *
Ve
1e-07
54.3208480071476 8.66353884374662 0
0 0

0101101
*
Ed
 1e-07 1 1 0
1  52 0 -0.900796043919365 0.900796043919403
0

0101000
+285 0 -283 0 *
Ve
1e-07
52.3423351636503 6.08509070560877 0
0 0

0101101
*
Ed
 1e-07 1 1 0
1  53 0 0 1.65806278939462
0

0101000
+283 0 -281 0 *
Ve
1e-07
30.738532771757 4.19500290726386 0
0 0

0101101
*
Ed
 1e-07 1 1 0
1  54 0 2.40535069369143 24.0916761010403
0

0101000
+281 0 -279 0 *
Ve
1e-07
30.1668726001225 4.55766360408222 0
0 0

0101101
*
Ed
 1e-07 1 1 0
1  55 0 0 0.676991973992282
0

0101000
+279 0 -277 0 *
Ve
1e-07
29.6652347078915 4.46921130913616 0
0 0

0101101
*
Ed
 1e-07 1 1 0
1  56 0 0 0.509376465301631
0

0101000
+277 0 -275 0 *
Ve
1e-07
29.9906235346983 0.749999999999993 0
0 0

0101101
*
Ed
 1e-07 1 1 0
1  57 0 6.13365498687951 6.25818270228023
0

0101000
+275 0 -273 0 *
Ve
1e-07
30.5 0.749999999999993 0
0 0

0101101
*
Ed
 1e-07 1 1 0
1  58 0 -0.509376465301699 0
0

0101000
+273 0 -271 0 *
Ve
1e-07
31 1.20641881298862 0
0 0

0101101
*
Ed
 1e-07 1 1 0
1  59 0 -0.676991973992268 0
0

0101000
+271 0 -269 0 *
Ve
1e-07
52.6038023918933 3.09650661133352 0
0 0

0101101
*
Ed
 1e-07 1 1 0
1  60 0 -24.0916761010403 -2.40535069369142
0

0101000
+269 0 -267 0 *
Ve
1e-07
55 0.900796043919384 0
0 0

0101101
*
Ed
 1e-07 1 1 0
1  61 0 4.62512251778498 6.28318530717959
0

0101000
+267 0 -265 0 *
Ve
1e-07
55 0 0
0 0

0101101
*
Ed
 1e-07 1 1 0
1  62 0 -0.900796043919397 -1.34711147906209e-14
0

0101000
+265 0 -263 0 *
Ve
1e-07
62.5 0 0
0 0

0101101
*
Ed
 1e-07 1 1 0
1  63 0 -70 -62.5
0

0101000
+263 0 -261 0 *
Ed
 1e-07 1 1 0
1  64 0 0 1.0471975511966
0

0101000
+261 0 -386 0 *
Wi

0101100
+384 0 +382 0 +380 0 +378 0 +376 0 +374 0 +372 0 +370 0 +368 0 +366 0 
+364 0 +362 0 +360 0 +358 0 +356 0 +354 0 +352 0 +350 0 +348 0 +346 0 
+344 0 +342 0 +340 0 +338 0 +336 0 +334 0 +332 0 +330 0 +328 0 +326 0 
+324 0 +322 0 +320 0 +318 0 +316 0 +314 0 +312 0 +310 0 +308 0 +306 0 
+304 0 +302 0 +300 0 +298 0 +296 0 +294 0 +292 0 +290 0 +288 0 +286 0 
+284 0 +282 0 +280 0 +278 0 +276 0 +274 0 +272 0 +270 0 +268 0 +266 0 
+264 0 +262 0 +260 0 +259 0 *
Fa
0  1e-07 1 0

0101000
+258 0 *
Sh

0101000
+257 0 *
Ve
1e-07
31 0 0
0 0

0101101
*
Ve
1e-07
43 0 0
0 0

0101101
*
Ed
 1e-07 1 1 0
1  65 0 -94 -82
0

0101000
+255 0 -254 0 *
Ve
1e-07
43 2.25628277529971 0
0 0

0101101
*
Ed
 1e-07 1 1 0
1  66 0 -64.7562827752997 -62.5
0

0101000
+252 0 -254 0 *
Ve
1e-07
31 1.20641881298862 0
0 0

0101101
*
Ed
 1e-07 1 1 0
1  67 0 12.0458380505202 24.0916761010403
0

0101000
+252 0 -250 0 *
Ed
 1e-07 1 1 0
1  68 0 -62.5 -61.2935811870114
0

0101000
+255 0 -250 0 *
Wi

0101100
+253 0 -251 0 +249 0 -248 0 *
Fa
0  1e-07 2 0

0101000
+247 0 *
Sh

0101000
+246 0 *
Ve
1e-07
43 0 0
0 0

0101101
*
Ve
1e-07
55 0 0
0 0

0101101
*
Ed
 1e-07 1 1 0
1  69 0 -82 -70
0

0101000
+244 0 -243 0 *
Ve
1e-07
55 0.900796043919398 0
0 0

0101101
*
Ed
 1e-07 1 1 0
1  70 0 0 0.900796043919398
0

0101000
+243 0 -241 0 *
Ve
1e-07
52.6038023918933 3.09650661133353 0
0 0

0101101
*
Ed
 1e-07 1 1 0
1  71 0 0 1.65806278939461
0

0101000
+241 0 -239 0 *
Ve
1e-07
43 2.25628277529971 0
0 0

0101101
*
Ed
 1e-07 1 1 0
1  72 0 2.40535069369142 12.0458380505202
0

0101000
+239 0 -237 0 *
Ed
 1e-07 1 1 0
1  73 0 62.5 64.7562827752997
0

0101000
+244 0 -237 0 *
Wi

0101100
+242 0 +240 0 +238 0 +236 0 -235 0 *
Fa
0  1e-07 3 0

0101000
-234 0 *
Sh

0101000
-233 0 *
Ve
1e-07
41.9549339872929 9.68887640978106 0
0 0

0101101
*
Ve
1e-07
42.738532771757 5.24486686957495 0
0 0

0101101
*
Ed
 1e-07 1 1 0
1  74 0 -64.7562827752997 -60.2437172247003
0

0101000
+231 0 -230 0 *
Ve
1e-07
30.3195479149999 6.57118410808582 0
0 0

0101101
*
Ed
 1e-07 1 1 0
1  75 0 12.0458380505202 24.0916761010403
0

0101000
+231 0 -228 0 *
Ve
1e-07
30.738532771757 4.19500290726386 0
0 0

0101101
*
Ed
 1e-07 1 1 0
1  76 0 -63.7064188129886 -61.2935811870113
0

0101000
+226 0 -228 0 *
Ed
 1e-07 1 1 0
1  77 0 12.0458380505202 24.0916761010403
0

0101000
+230 0 -226 0 *
Wi

0101100
-229 0 +227 0 -225 0 -224 0 *
Fa
0  1e-07 4 0

0101000
+223 0 *
Sh

0101000
+222 0 *
Ve
1e-07
39.6350885356028 16.8270784373592 0
0 0

0101101
*
Ve
1e-07
41.1784768519853 12.5866538886483 0
0 0

0101101
*
Ed
 1e-07 1 1 0
1  78 0 -64.7562827752997 -60.2437172247003
0

0101000
+220 0 -219 0 *
Ve
1e-07
28.717851709034 11.7362872992384 0
0 0

0101101
*
Ed
 1e-07 1 1 0
1  79 0 12.0458380505202 24.0916761010404
0

0101000
+220 0 -217 0 *
Ve
1e-07
29.5430907796923 9.46896158695303 0
0 0

0101101
*
Ed
 1e-07 1 1 0
1  80 0 -63.7064188129886 -61.2935811870114
0

0101000
+215 0 -217 0 *
Ed
 1e-07 1 1 0
1  81 0 12.0458380505202 24.0916761010403
0

0101000
+219 0 -215 0 *
Wi

0101100
-218 0 +216 0 -214 0 -213 0 *
Fa
0  1e-07 5 0

0101000
+212 0 *
Sh

0101000
+211 0 *
Ve
1e-07
36.110950975081 23.4539982015308 0
0 0

0101101
*
Ve
1e-07
38.3672337503807 19.5460017984692 0
0 0

0101101
*
Ed
 1e-07 1 1 0
1  82 0 -64.7562827752997 -60.2437172247003
0

0101000
+209 0 -208 0 *
Ve
1e-07
26.2435781108233 16.5447893396516 0
0 0

0101101
*
Ed
 1e-07 1 1 0
1  83 0 12.0458380505202 24.0916761010403
0

0101000
+209 0 -206 0 *
Ve
1e-07
27.4499969238119 14.4552106603484 0
0 0

0101101
*
Ed
 1e-07 1 1 0
1  84 0 -63.7064188129886 -61.2935811870114
0

0101000
+204 0 -206 0 *
Ed
 1e-07 1 1 0
1  85 0 12.0458380505202 24.0916761010403
0

0101000
+208 0 -204 0 *
Wi

0101100
-207 0 +205 0 -203 0 -202 0 *
Fa
0  1e-07 6 0

0101000
+201 0 *
Sh

0101000
+200 0 *
Ve
1e-07
31.4896004422042 29.3682800986446 0
0 0

0101101
*
Ve
1e-07
34.3902216660279 25.9114543343978 0
0 0

0101101
*
Ed
 1e-07 1 1 0
1  86 0 -64.7562827752997 -60.2437172247002
0

0101000
+198 0 -197 0 *
Ve
1e-07
22.9719066716065 20.8505863280468 0
0 0

0101101
*
Ed
 1e-07 1 1 0
1  87 0 12.0458380505202 24.0916761010403
0

0101000
+198 0 -195 0 *
Ve
1e-07
24.5228488017701 19.0022454725186 0
0 0

0101101
*
Ed
 1e-07 1 1 0
1  88 0 -63.7064188129886 -61.2935811870114
0

0101000
+193 0 -195 0 *
Ed
 1e-07 1 1 0
1  89 0 12.0458380505202 24.0916761010404
0

0101000
+197 0 -193 0 *
Wi

0101100
-196 0 +194 0 -192 0 -191 0 *
Fa
0  1e-07 7 0

0101000
+190 0 *
Sh

0101000
+189 0 *
Ve
1e-07
25.9114543343978 34.3902216660279 0
0 0

0101101
*
Ve
1e-07
29.3682800986446 31.4896004422042 0
0 0

0101101
*
Ed
 1e-07 1 1 0
1  90 0 -64.7562827752997 -60.2437172247002
0

0101000
+187 0 -186 0 *
Ve
1e-07
19.0022454725186 24.5228488017701 0
0 0

0101101
*
Ed
 1e-07 1 1 0
1  91 0 12.0458380505202 24.0916761010404
0

0101000
+187 0 -184 0 *
Ve
1e-07
20.8505863280468 22.9719066716065 0
0 0

0101101
*
Ed
 1e-07 1 1 0
1  92 0 -63.7064188129886 -61.2935811870114
0

0101000
+182 0 -184 0 *
Ed
 1e-07 1 1 0
1  93 0 12.0458380505202 24.0916761010404
0

0101000
+186 0 -182 0 *
Wi

0101100
-185 0 +183 0 -181 0 -180 0 *
Fa
0  1e-07 8 0

0101000
+179 0 *
Sh

0101000
+178 0 *
Ve
1e-07
21.5 37.2390923627309 0
0 0

0101101
*
Ve
1e-07
15.5 26.8467875173176 0
0 0

0101101
*
Ed
 1e-07 1 1 0
1  94 0 -43 -31
0

0101000
+176 0 -175 0 *
Ve
1e-07
16.5447893396516 26.2435781108233 0
0 0

0101101
*
Ed
 1e-07 1 1 0
1  95 0 -63.7064188129886 -62.5
0

0101000
+173 0 -175 0 *
Ve
1e-07
23.4539982015308 36.110950975081 0
0 0

0101101
*
Ed
 1e-07 1 1 0
1  96 0 12.0458380505202 24.0916761010403
0

0101000
+171 0 -173 0 *
Ed
 1e-07 1 1 0
1  97 0 -62.5 -60.2437172247003
0

0101000
+176 0 -171 0 *
Wi

0101100
+174 0 -172 0 -170 0 -169 0 *
Fa
0  1e-07 9 0

0101000
+168 0 *
Sh

0101000
+167 0 *
Ve
1e-07
42.738532771757 5.24486686957495 0
0 0

0101101
*
Ve
1e-07
41.9549339872928 9.68887640978106 0
0 0

0101101
*
Ed
 1e-07 1 1 0
1  98 0 60.2437172247003 64.7562827752997
0

0101000
+165 0 -164 0 *
Ve
1e-07
52.3423351636503 6.08509070560877 0
0 0

0101101
*
Ed
 1e-07 1 1 0
1  99 0 2.40535069369143 12.0458380505202
0

0101000
+162 0 -165 0 *
Ve
1e-07
54.3208480071476 8.66353884374662 0
0 0

0101101
*
Ed
 1e-07 1 1 0
1  100 0 0 1.65806278939462
0

0101000
+160 0 -162 0 *
Ve
1e-07
54.0080048241953 10.4377606996157 0
0 0

0101101
*
Ed
 1e-07 1 1 0
1  101 0 -0.900796043919403 0.900796043919365
0

0101000
+160 0 -158 0 *
Ve
1e-07
51.266929703267 12.1840181417984 0
0 0

0101101
*
Ed
 1e-07 1 1 0
1  102 0 0 1.65806278939463
0

0101000
+158 0 -156 0 *
Ed
 1e-07 1 1 0
1  103 0 2.40535069369145 12.0458380505203
0

0101000
+156 0 -164 0 *
Wi

0101100
-163 0 -161 0 -159 0 +157 0 +155 0 +154 0 *
Fa
0  1e-07 10 0

0101000
-153 0 *
Sh

0101000
-152 0 *
Ve
1e-07
41.1784768519853 12.5866538886483 0
0 0

0101101
*
Ve
1e-07
39.6350885356028 16.8270784373592 0
0 0

0101101
*
Ed
 1e-07 1 1 0
1  104 0 60.2437172247003 64.7562827752997
0

0101000
+150 0 -149 0 *
Ve
1e-07
50.4904725679595 15.0817956206656 0
0 0

0101101
*
Ed
 1e-07 1 1 0
1  105 0 2.40535069369135 12.0458380505202
0

0101000
+147 0 -150 0 *
Ve
1e-07
51.9911845352735 17.9646364876076 0
0 0

0101101
*
Ed
 1e-07 1 1 0
1  106 0 0 1.65806278939459
0

0101000
+145 0 -147 0 *
Ve
1e-07
51.3750037511765 19.657579278216 0
0 0

0101101
*
Ed
 1e-07 1 1 0
1  107 0 -0.900796043919397 0.9007960439194
0

0101000
+145 0 -143 0 *
Ve
1e-07
48.3723372979251 20.9013244464354 0
0 0

0101101
*
Ed
 1e-07 1 1 0
1  108 0 0 1.65806278939462
0

0101000
+143 0 -141 0 *
Ed
 1e-07 1 1 0
1  109 0 2.4053506936914 12.0458380505202
0

0101000
+141 0 -149 0 *
Wi

0101100
-148 0 -146 0 -144 0 +142 0 +140 0 +139 0 *
Fa
0  1e-07 11 0

0101000
-138 0 *
Sh

0101000
-137 0 *
Ve
1e-07
38.3672337503807 19.5460017984692 0
0 0

0101101
*
Ve
1e-07
36.110950975081 23.4539982015308 0
0 0

0101101
*
Ed
 1e-07 1 1 0
1  110 0 60.2437172247003 64.7562827752997
0

0101000
+135 0 -134 0 *
Ve
1e-07
47.104482512703 23.6202478075454 0
0 0

0101101
*
Ed
 1e-07 1 1 0
1  111 0 2.40535069369136 12.0458380505202
0

0101000
+132 0 -135 0 *
Ve
1e-07
48.0817952301038 26.7198877423373 0
0 0

0101101
*
Ed
 1e-07 1 1 0
1  112 0 0 1.65806278939458
0

0101000
+130 0 -132 0 *
Ve
1e-07
47.1809991861844 28.2801122576627 0
0 0

0101101
*
Ed
 1e-07 1 1 0
1  113 0 -0.900796043919381 0.900796043919381
0

0101000
+130 0 -128 0 *
Ve
1e-07
44.0079759013695 28.983554584348 0
0 0

0101101
*
Ed
 1e-07 1 1 0
1  114 0 0 1.65806278939459
0

0101000
+128 0 -126 0 *
Ed
 1e-07 1 1 0
1  115 0 2.40535069369134 12.0458380505202
0

0101000
+126 0 -134 0 *
Wi

0101100
-133 0 -131 0 -129 0 +127 0 +125 0 +124 0 *
Fa
0  1e-07 12 0

0101000
-123 0 *
Sh

0101000
-122 0 *
Ve
1e-07
34.3902216660279 25.9114543343978 0
0 0

0101101
*
Ve
1e-07
31.4896004422042 29.3682800986446 0
0 0

0101101
*
Ed
 1e-07 1 1 0
1  116 0 60.2437172247002 64.7562827752997
0

0101000
+120 0 -119 0 *
Ve
1e-07
42.2872465923163 31.4410107172149 0
0 0

0101101
*
Ed
 1e-07 1 1 0
1  117 0 2.40535069369148 12.0458380505202
0

0101000
+117 0 -120 0 *
Ve
1e-07
42.7114649074298 34.6632687289316 0
0 0

0101101
*
Ed
 1e-07 1 1 0
1  118 0 0 1.65806278939464
0

0101000
+115 0 -117 0 *
Ve
1e-07
41.5534238356578 36.0433683365877 0
0 0

0101101
*
Ed
 1e-07 1 1 0
1  119 0 -0.900796043919442 0.900796043919355
0

0101000
+115 0 -113 0 *
Ve
1e-07
38.306454426161 36.1851340826014 0
0 0

0101101
*
Ed
 1e-07 1 1 0
1  120 0 0 1.65806278939461
0

0101000
+113 0 -111 0 *
Ed
 1e-07 1 1 0
1  121 0 2.4053506936914 12.0458380505202
0

0101000
+111 0 -119 0 *
Wi

0101100
-118 0 -116 0 -114 0 +112 0 +110 0 +109 0 *
Fa
0  1e-07 13 0

0101000
-108 0 *
Sh

0101000
-107 0 *
Ve
1e-07
29.3682800986446 31.4896004422042 0
0 0

0101101
*
Ve
1e-07
25.9114543343978 34.3902216660279 0
0 0

0101101
*
Ed
 1e-07 1 1 0
1  122 0 60.2437172247002 64.7562827752997
0

0101000
+105 0 -104 0 *
Ve
1e-07
36.1851340826014 38.306454426161 0
0 0

0101101
*
Ed
 1e-07 1 1 0
1  123 0 2.40535069369147 12.0458380505202
0

0101000
+102 0 -105 0 *
Ve
1e-07
36.0433683365877 41.5534238356578 0
0 0

0101101
*
Ed
 1e-07 1 1 0
1  124 0 0 1.65806278939461
0

0101000
+100 0 -102 0 *
Ve
1e-07
34.6632687289317 42.7114649074298 0
0 0

0101101
*
Ed
 1e-07 1 1 0
1  125 0 -0.900796043919355 0.900796043919365
0

0101000
+100 0 -98 0 *
Ve
1e-07
31.4410107172149 42.2872465923163 0
0 0

0101101
*
Ed
 1e-07 1 1 0
1  126 0 0 1.65806278939464
0

0101000
+98 0 -96 0 *
Ed
 1e-07 1 1 0
1  127 0 2.40535069369148 12.0458380505202
0

0101000
+96 0 -104 0 *
Wi

0101100
-103 0 -101 0 -99 0 +97 0 +95 0 +94 0 *
Fa
0  1e-07 14 0

0101000
-93 0 *
Sh

0101000
-92 0 *
Ve
1e-07
27.5 47.6313972081441 0
0 0

0101101
*
Ve
1e-07
21.5 37.2390923627308 0
0 0

0101101
*
Ed
 1e-07 1 1 0
1  128 0 -55 -43
0

0101000
+90 0 -89 0 *
Ve
1e-07
23.4539982015308 36.110950975081 0
0 0

0101101
*
Ed
 1e-07 1 1 0
1  129 0 60.2437172247003 62.5
0

0101000
+87 0 -89 0 *
Ve
1e-07
28.983554584348 44.0079759013695 0
0 0

0101101
*
Ed
 1e-07 1 1 0
1  130 0 2.40535069369134 12.0458380505202
0

0101000
+85 0 -87 0 *
Ve
1e-07
28.2801122576627 47.1809991861844 0
0 0

0101101
*
Ed
 1e-07 1 1 0
1  131 0 0 1.65806278939458
0

0101000
+83 0 -85 0 *
Ed
 1e-07 1 1 0
1  132 0 -0.900796043919381 0
0

0101000
+83 0 -90 0 *
Wi

0101100
+88 0 -86 0 -84 0 -82 0 +81 0 *
Fa
0  1e-07 15 0

0101000
-80 0 *
Sh

0101000
-79 0 *
Ve
1e-07
14.1993817772883 10.4721570288171 0
0 0

0101101
*
Ve
1e-07
13.7021208296042 10.5244212604509 0
0 0

0101101
*
Ed
 1e-07 1 1 0
1  133 0 -0.499999999999961 0
0

0101000
+77 0 -76 0 *
Ve
1e-07
14.956462388816 22.4586840048702 0
0 0

0101101
*
Ed
 1e-07 1 1 0
1  134 0 -12 0
0

0101000
+76 0 -74 0 *
Ve
1e-07
15.4537233365002 22.4064197732363 0
0 0

0101101
*
Ed
 1e-07 1 1 0
1  135 0 -2.99999999999998 -2.49999999999991
0

0101000
+74 0 -72 0 *
Ve
1e-07
15.605238277239 23.8479881396858 0
0 0

0101101
*
Ed
 1e-07 1 1 0
1  136 0 -50.5000000000001 -49.0504910719783
0

0101000
+72 0 -70 0 *
Ve
1e-07
17.9400280749208 22.1450986150672 0
0 0

0101101
*
Ed
 1e-07 1 1 0
1  137 0 5.81542391795524 5.91686469922973
0

0101000
+70 0 -68 0 *
Ve
1e-07
16.685686515709 10.2108358706479 0
0 0

0101101
*
Ed
 1e-07 1 1 0
1  138 0 -12 -0
0

0101000
+68 0 -66 0 *
Ve
1e-07
14.0095208424108 8.66575089877319 0
0 0

0101101
*
Ed
 1e-07 1 1 0
1  139 0 -3.09016994374948 -0
0

0101000
+66 0 -64 0 *
Ed
 1e-07 1 1 0
1  140 0 -64.3163563200135 -62.5
0

0101000
+64 0 -77 0 *
Wi

0101100
+75 0 +73 0 +71 0 +69 0 +67 0 +65 0 +63 0 +62 0 *
Ve
1e-07
27.1313903997307 2.18010710584738 0
0 0

0101101
*
Ve
1e-07
26.9280220781928 1.72333437702608 0
0 0

0101101
*
Ed
 1e-07 1 1 0
1  141 0 2.5 3
0

0101000
+60 0 -59 0 *
Ve
1e-07
15.9654765864816 6.60417409393568 0
0 0

0101101
*
Ed
 1e-07 1 1 0
1  142 0 0 12
0

0101000
+59 0 -57 0 *
Ve
1e-07
16.1688449080195 7.06094682275698 0
0 0

0101101
*
Ed
 1e-07 1 1 0
1  143 0 0 0.5
0

0101000
+57 0 -55 0 *
Ve
1e-07
14.5095208424108 7.79972549498875 0
0 0

0101101
*
Ed
 1e-07 1 1 0
1  144 0 62.5 64.3163563200134
0

0101000
+55 0 -53 0 *
Ve
1e-07
17.185686515709 9.34481046686349 0
0 0

0101101
*
Ed
 1e-07 1 1 0
1  145 0 0 3.0901699437495
0

0101000
+53 0 -51 0 *
Ve
1e-07
28.1482320074202 4.46397074995388 0
0 0

0101101
*
Ed
 1e-07 1 1 0
1  146 0 0 12
0

0101000
+51 0 -49 0 *
Ve
1e-07
28.4555826967374 1.5905387103554 0
0 0

0101101
*
Ed
 1e-07 1 1 0
1  147 0 0.366320607949852 0.467761389224342
0

0101000
+49 0 -47 0 *
Ed
 1e-07 1 1 0
1  148 0 49.0504910719782 50.5
0

0101000
+47 0 -60 0 *
Wi

0101100
+58 0 +56 0 +54 0 +52 0 +50 0 +48 0 +46 0 +45 0 *
Ve
1e-07
14.75 25.5477494116409 0
0 0

0101101
*
Ve
1e-07
6.5 11.2583302491977 0
0 0

0101101
*
Ed
 1e-07 1 1 0
1  149 0 -29.5 -13
0

0101000
+43 0 -42 0 *
Ve
1e-07
13 0 0
0 0

0101101
*
Ed
 1e-07 1 1 0
1  150 0 5.75958653158129 6.80678408277788
0

0101000
+42 0 -40 0 *
Ve
1e-07
29.5 0 0
0 0

0101101
*
Ed
 1e-07 1 1 0
1  151 0 -112 -95.5
0

0101000
+40 0 -38 0 *
Ed
 1e-07 1 1 0
1  152 0 5.75958653158129 6.80678408277788
0

0101000
+38 0 -43 0 *
Wi

0101100
+41 0 +39 0 +37 0 +36 0 *
Fa
0  1e-07 16 0

0101000
+61 0 +44 0 +35 0 *
Sh

0101000
+34 0 *
Ve
1e-07
16.685686515709 10.2108358706479 0
0 0

0101101
*
Ve
1e-07
17.9400280749208 22.1450986150672 0
0 0

0101101
*
Ed
 1e-07 1 1 0
1  153 0 0 12
0

0101000
+32 0 -31 0 *
Ve
1e-07
14.956462388816 22.4586840048702 0
0 0

0101101
*
Ed
 1e-07 1 1 0
1  154 0 0 2.99999999999998
0

0101000
+31 0 -29 0 *
Ve
1e-07
13.7021208296042 10.5244212604509 0
0 0

0101101
*
Ed
 1e-07 1 1 0
1  155 0 0 12
0

0101000
+29 0 -27 0 *
Ed
 1e-07 1 1 0
1  156 0 0 2.99999999999999
0

0101000
+27 0 -32 0 *
Wi

0101100
+30 0 +28 0 +26 0 +25 0 *
Fa
0  1e-07 17 0

0101000
+24 0 *
Sh

0101000
+23 0 *
Ve
1e-07
17.185686515709 9.34481046686349 0
0 0

0101101
*
Ve
1e-07
28.1482320074202 4.46397074995388 0
0 0

0101101
*
Ed
 1e-07 1 1 0
1  157 0 0 12
0

0101000
+21 0 -20 0 *
Ve
1e-07
15.9654765864816 6.60417409393568 0
0 0

0101101
*
Ed
 1e-07 1 1 0
1  158 0 0 3.00000000000001
0

0101000
+18 0 -21 0 *
Ve
1e-07
26.9280220781928 1.72333437702608 0
0 0

0101101
*
Ed
 1e-07 1 1 0
1  159 0 0 12
0

0101000
+16 0 -18 0 *
Ed
 1e-07 1 1 0
1  160 0 0 3
0

0101000
+20 0 -16 0 *
Wi

0101100
-19 0 -17 0 -15 0 -14 0 *
Fa
0  1e-07 18 0

0101000
-13 0 *
Sh

0101000
-12 0 *
Ve
1e-07
0 0 0
0 0

0101101
*
Ve
1e-07
13 0 0
0 0

0101101
*
Ed
 1e-07 1 1 0
1  161 0 -125 -112
0

0101000
+10 0 -9 0 *
Ve
1e-07
6.5 11.2583302491977 0
0 0

0101101
*
Ed
 1e-07 1 1 0
1  162 0 0 1.0471975511966
0

0101000
+9 0 -7 0 *
Ed
 1e-07 1 1 0
1  163 0 -13 -0
0

0101000
+7 0 -10 0 *
Wi

0101100
+8 0 +6 0 +5 0 *
Fa
0  1e-07 19 0

0101000
+4 0 *
Sh

0101000
+3 0 *
Co

1100000
+256 0 +245 0 +232 0 +221 0 +210 0 +199 0 +188 0 +177 0 +166 0 +151 0 
+136 0 +121 0 +106 0 +91 0 +78 0 +33 0 +22 0 +11 0 +2 0 *

+1 0 